<mxfile host="app.diagrams.net" modified="2022-03-07T11:48:07.700Z" agent="5.0 (Windows)" etag="58dFC070-AFpxdvwCWAm" version="16.6.2" type="github">
  <diagram id="C5RBs43oDa-KdzZeNtuy" name="Page-1">
    <mxGraphModel dx="1422" dy="780" grid="1" gridSize="10" guides="1" tooltips="1" connect="1" arrows="1" fold="1" page="1" pageScale="1" pageWidth="827" pageHeight="1169" math="0" shadow="0">
      <root>
        <mxCell id="WIyWlLk6GJQsqaUBKTNV-0" />
        <mxCell id="WIyWlLk6GJQsqaUBKTNV-1" parent="WIyWlLk6GJQsqaUBKTNV-0" />
        <mxCell id="6HkCZph5SqvhVZf6sTZP-3" value="" style="edgeStyle=orthogonalEdgeStyle;rounded=0;orthogonalLoop=1;jettySize=auto;html=1;endArrow=block;endFill=0;" edge="1" parent="WIyWlLk6GJQsqaUBKTNV-1" source="6HkCZph5SqvhVZf6sTZP-0" target="6HkCZph5SqvhVZf6sTZP-2">
          <mxGeometry relative="1" as="geometry" />
        </mxCell>
        <mxCell id="6HkCZph5SqvhVZf6sTZP-0" value="&lt;div&gt;Save and Invite&lt;/div&gt;&lt;div&gt;(All required Fields Completed)&lt;br&gt;&lt;/div&gt;" style="shape=parallelogram;perimeter=parallelogramPerimeter;whiteSpace=wrap;html=1;fixedSize=1;" vertex="1" parent="WIyWlLk6GJQsqaUBKTNV-1">
          <mxGeometry x="140" y="90" width="160" height="60" as="geometry" />
        </mxCell>
        <mxCell id="6HkCZph5SqvhVZf6sTZP-9" value="" style="edgeStyle=orthogonalEdgeStyle;rounded=0;orthogonalLoop=1;jettySize=auto;html=1;endArrow=block;endFill=0;dashed=1;" edge="1" parent="WIyWlLk6GJQsqaUBKTNV-1" source="6HkCZph5SqvhVZf6sTZP-2" target="6HkCZph5SqvhVZf6sTZP-7">
          <mxGeometry relative="1" as="geometry">
            <mxPoint x="629" y="350" as="targetPoint" />
          </mxGeometry>
        </mxCell>
        <mxCell id="6HkCZph5SqvhVZf6sTZP-2" value="Trigger InviteUsers JOB" style="rounded=1;whiteSpace=wrap;html=1;" vertex="1" parent="WIyWlLk6GJQsqaUBKTNV-1">
          <mxGeometry x="569" y="189" width="120" height="60" as="geometry" />
        </mxCell>
        <mxCell id="6HkCZph5SqvhVZf6sTZP-32" value="" style="edgeStyle=orthogonalEdgeStyle;rounded=0;orthogonalLoop=1;jettySize=auto;html=1;dashed=1;fontSize=15;endArrow=block;endFill=0;" edge="1" parent="WIyWlLk6GJQsqaUBKTNV-1" source="6HkCZph5SqvhVZf6sTZP-4" target="6HkCZph5SqvhVZf6sTZP-31">
          <mxGeometry relative="1" as="geometry" />
        </mxCell>
        <mxCell id="6HkCZph5SqvhVZf6sTZP-4" value="&lt;div&gt;Event PENDING&lt;/div&gt;&lt;div&gt;State&lt;br&gt;&lt;/div&gt;" style="rounded=1;whiteSpace=wrap;html=1;" vertex="1" parent="WIyWlLk6GJQsqaUBKTNV-1">
          <mxGeometry x="150" y="319" width="120" height="60" as="geometry" />
        </mxCell>
        <mxCell id="6HkCZph5SqvhVZf6sTZP-12" value="" style="edgeStyle=orthogonalEdgeStyle;rounded=0;orthogonalLoop=1;jettySize=auto;html=1;endArrow=block;endFill=0;" edge="1" parent="WIyWlLk6GJQsqaUBKTNV-1" source="6HkCZph5SqvhVZf6sTZP-6" target="6HkCZph5SqvhVZf6sTZP-4">
          <mxGeometry relative="1" as="geometry" />
        </mxCell>
        <mxCell id="6HkCZph5SqvhVZf6sTZP-6" value="&lt;div&gt;Event DRAFT&lt;/div&gt;&lt;div&gt;State&lt;br&gt;&lt;/div&gt;" style="rounded=1;whiteSpace=wrap;html=1;" vertex="1" parent="WIyWlLk6GJQsqaUBKTNV-1">
          <mxGeometry x="150" y="200" width="120" height="60" as="geometry" />
        </mxCell>
        <mxCell id="6HkCZph5SqvhVZf6sTZP-14" value="" style="edgeStyle=orthogonalEdgeStyle;rounded=0;orthogonalLoop=1;jettySize=auto;html=1;dashed=1;endArrow=block;endFill=0;" edge="1" parent="WIyWlLk6GJQsqaUBKTNV-1" source="6HkCZph5SqvhVZf6sTZP-7" target="6HkCZph5SqvhVZf6sTZP-13">
          <mxGeometry relative="1" as="geometry" />
        </mxCell>
        <mxCell id="6HkCZph5SqvhVZf6sTZP-7" value="&lt;div&gt;Completed Background Job&lt;/div&gt;" style="rounded=1;whiteSpace=wrap;html=1;" vertex="1" parent="WIyWlLk6GJQsqaUBKTNV-1">
          <mxGeometry x="569" y="319" width="120" height="60" as="geometry" />
        </mxCell>
        <mxCell id="6HkCZph5SqvhVZf6sTZP-10" value="" style="endArrow=none;dashed=1;html=1;dashPattern=1 3;strokeWidth=2;rounded=0;" edge="1" parent="WIyWlLk6GJQsqaUBKTNV-1">
          <mxGeometry width="50" height="50" relative="1" as="geometry">
            <mxPoint x="49" y="279" as="sourcePoint" />
            <mxPoint x="779" y="279" as="targetPoint" />
          </mxGeometry>
        </mxCell>
        <mxCell id="6HkCZph5SqvhVZf6sTZP-11" value="" style="edgeStyle=orthogonalEdgeStyle;rounded=0;orthogonalLoop=1;jettySize=auto;html=1;endArrow=block;endFill=0;entryX=0.5;entryY=0;entryDx=0;entryDy=0;exitX=0.5;exitY=1;exitDx=0;exitDy=0;" edge="1" parent="WIyWlLk6GJQsqaUBKTNV-1" source="6HkCZph5SqvhVZf6sTZP-0" target="6HkCZph5SqvhVZf6sTZP-6">
          <mxGeometry relative="1" as="geometry">
            <mxPoint x="209" y="150" as="sourcePoint" />
            <mxPoint x="639" y="220" as="targetPoint" />
            <Array as="points">
              <mxPoint x="210" y="150" />
            </Array>
          </mxGeometry>
        </mxCell>
        <mxCell id="6HkCZph5SqvhVZf6sTZP-25" value="" style="edgeStyle=orthogonalEdgeStyle;rounded=0;orthogonalLoop=1;jettySize=auto;html=1;fontSize=15;endArrow=block;endFill=0;entryX=0.5;entryY=0;entryDx=0;entryDy=0;" edge="1" parent="WIyWlLk6GJQsqaUBKTNV-1" source="6HkCZph5SqvhVZf6sTZP-13" target="6HkCZph5SqvhVZf6sTZP-23">
          <mxGeometry relative="1" as="geometry">
            <mxPoint x="629" y="669" as="targetPoint" />
          </mxGeometry>
        </mxCell>
        <mxCell id="6HkCZph5SqvhVZf6sTZP-13" value="&lt;div&gt;Send OneSignal Push request&lt;/div&gt;&lt;div&gt;&amp;nbsp;for web&lt;/div&gt;&lt;div&gt;&lt;br&gt;&lt;/div&gt;&lt;div&gt;https://documentation.onesignal.com/docs/web-push-quickstart&lt;/div&gt;" style="shape=parallelogram;perimeter=parallelogramPerimeter;whiteSpace=wrap;html=1;fixedSize=1;" vertex="1" parent="WIyWlLk6GJQsqaUBKTNV-1">
          <mxGeometry x="498.5" y="439" width="261" height="120" as="geometry" />
        </mxCell>
        <mxCell id="6HkCZph5SqvhVZf6sTZP-18" value="&lt;font style=&quot;font-size: 18px&quot;&gt;&lt;b&gt;WEB&lt;/b&gt;&lt;/font&gt;" style="text;html=1;strokeColor=none;fillColor=none;align=center;verticalAlign=middle;whiteSpace=wrap;rounded=0;" vertex="1" parent="WIyWlLk6GJQsqaUBKTNV-1">
          <mxGeometry x="170" y="40" width="60" height="30" as="geometry" />
        </mxCell>
        <mxCell id="6HkCZph5SqvhVZf6sTZP-21" value="&lt;font style=&quot;font-size: 18px&quot;&gt;&lt;b&gt;BACKEND&lt;/b&gt;&lt;/font&gt;" style="text;html=1;strokeColor=none;fillColor=none;align=center;verticalAlign=middle;whiteSpace=wrap;rounded=0;" vertex="1" parent="WIyWlLk6GJQsqaUBKTNV-1">
          <mxGeometry x="610" y="40" width="60" height="30" as="geometry" />
        </mxCell>
        <mxCell id="6HkCZph5SqvhVZf6sTZP-22" value="&lt;br&gt;&lt;font style=&quot;font-size: 18px&quot;&gt;&lt;b&gt;ONE SIGNAL&lt;br&gt;&lt;/b&gt;&lt;/font&gt;" style="text;html=1;strokeColor=none;fillColor=none;align=center;verticalAlign=middle;whiteSpace=wrap;rounded=0;" vertex="1" parent="WIyWlLk6GJQsqaUBKTNV-1">
          <mxGeometry x="549" y="760" width="170" height="30" as="geometry" />
        </mxCell>
        <mxCell id="6HkCZph5SqvhVZf6sTZP-27" value="" style="edgeStyle=orthogonalEdgeStyle;rounded=0;orthogonalLoop=1;jettySize=auto;html=1;fontSize=15;endArrow=block;endFill=0;dashed=1;" edge="1" parent="WIyWlLk6GJQsqaUBKTNV-1" source="6HkCZph5SqvhVZf6sTZP-23" target="6HkCZph5SqvhVZf6sTZP-26">
          <mxGeometry relative="1" as="geometry" />
        </mxCell>
        <mxCell id="6HkCZph5SqvhVZf6sTZP-23" value="&lt;div style=&quot;font-size: 15px;&quot;&gt;One Signal service&lt;/div&gt;" style="rounded=0;whiteSpace=wrap;html=1;fontSize=15;" vertex="1" parent="WIyWlLk6GJQsqaUBKTNV-1">
          <mxGeometry x="569" y="700" width="120" height="60" as="geometry" />
        </mxCell>
        <mxCell id="6HkCZph5SqvhVZf6sTZP-26" value="&lt;div&gt;Send &lt;br&gt;&lt;/div&gt;&lt;div&gt;Notificaton&lt;/div&gt;" style="shape=parallelogram;perimeter=parallelogramPerimeter;whiteSpace=wrap;html=1;fixedSize=1;fontSize=15;" vertex="1" parent="WIyWlLk6GJQsqaUBKTNV-1">
          <mxGeometry x="340" y="700" width="120" height="60" as="geometry" />
        </mxCell>
        <mxCell id="6HkCZph5SqvhVZf6sTZP-30" value="" style="endArrow=none;dashed=1;html=1;dashPattern=1 3;strokeWidth=2;rounded=0;" edge="1" parent="WIyWlLk6GJQsqaUBKTNV-1">
          <mxGeometry width="50" height="50" relative="1" as="geometry">
            <mxPoint x="40" y="670" as="sourcePoint" />
            <mxPoint x="770" y="670" as="targetPoint" />
          </mxGeometry>
        </mxCell>
        <mxCell id="6HkCZph5SqvhVZf6sTZP-34" value="" style="edgeStyle=orthogonalEdgeStyle;rounded=0;orthogonalLoop=1;jettySize=auto;html=1;dashed=1;fontSize=15;endArrow=block;endFill=0;entryX=0;entryY=0.25;entryDx=0;entryDy=0;" edge="1" parent="WIyWlLk6GJQsqaUBKTNV-1" source="6HkCZph5SqvhVZf6sTZP-31" target="6HkCZph5SqvhVZf6sTZP-4">
          <mxGeometry relative="1" as="geometry">
            <mxPoint x="89" y="450" as="targetPoint" />
            <Array as="points">
              <mxPoint x="100" y="450" />
              <mxPoint x="100" y="334" />
            </Array>
          </mxGeometry>
        </mxCell>
        <mxCell id="6HkCZph5SqvhVZf6sTZP-35" value="No" style="edgeLabel;html=1;align=center;verticalAlign=middle;resizable=0;points=[];fontSize=15;" vertex="1" connectable="0" parent="6HkCZph5SqvhVZf6sTZP-34">
          <mxGeometry x="-0.2393" y="3" relative="1" as="geometry">
            <mxPoint as="offset" />
          </mxGeometry>
        </mxCell>
        <mxCell id="6HkCZph5SqvhVZf6sTZP-37" value="&lt;div&gt;Yes&lt;/div&gt;" style="edgeStyle=orthogonalEdgeStyle;rounded=0;orthogonalLoop=1;jettySize=auto;html=1;dashed=1;fontSize=15;endArrow=block;endFill=0;" edge="1" parent="WIyWlLk6GJQsqaUBKTNV-1" source="6HkCZph5SqvhVZf6sTZP-31" target="6HkCZph5SqvhVZf6sTZP-36">
          <mxGeometry relative="1" as="geometry" />
        </mxCell>
        <mxCell id="6HkCZph5SqvhVZf6sTZP-31" value="&lt;div&gt;Recieved&lt;/div&gt;&lt;div&gt;Notification&lt;br&gt;&lt;/div&gt;" style="rhombus;whiteSpace=wrap;html=1;fontSize=15;" vertex="1" parent="WIyWlLk6GJQsqaUBKTNV-1">
          <mxGeometry x="169" y="410" width="80" height="80" as="geometry" />
        </mxCell>
        <mxCell id="6HkCZph5SqvhVZf6sTZP-36" value="&lt;div&gt;Event Invited&lt;/div&gt;&lt;div&gt;Status&lt;br&gt;&lt;/div&gt;" style="rounded=1;whiteSpace=wrap;html=1;fontSize=15;" vertex="1" parent="WIyWlLk6GJQsqaUBKTNV-1">
          <mxGeometry x="150" y="570" width="120" height="60" as="geometry" />
        </mxCell>
        <mxCell id="6HkCZph5SqvhVZf6sTZP-38" value="https://superglu.cloud" style="text;html=1;align=center;verticalAlign=middle;resizable=0;points=[];autosize=1;strokeColor=none;fillColor=none;fontSize=15;" vertex="1" parent="WIyWlLk6GJQsqaUBKTNV-1">
          <mxGeometry x="325" y="765" width="150" height="20" as="geometry" />
        </mxCell>
        <mxCell id="6HkCZph5SqvhVZf6sTZP-39" value="&lt;div&gt;UseEffect &lt;br&gt;&lt;/div&gt;&lt;div&gt;in a Higer &lt;br&gt;&lt;/div&gt;&lt;div&gt;Component &lt;br&gt;&lt;/div&gt;&lt;div&gt;maybe ?&lt;/div&gt;" style="text;html=1;align=center;verticalAlign=middle;resizable=0;points=[];autosize=1;strokeColor=none;fillColor=none;fontSize=15;" vertex="1" parent="WIyWlLk6GJQsqaUBKTNV-1">
          <mxGeometry x="270" y="410" width="90" height="80" as="geometry" />
        </mxCell>
      </root>
    </mxGraphModel>
  </diagram>
</mxfile>
